<svg
  xmlns="http://www.w3.org/2000/svg"
  width="24"
  height="24"
  viewBox="0 0 24 24"
  fill="none"
  stroke="currentColor"
  stroke-width="2"
  stroke-linecap="round"
  stroke-linejoin="round"
  class="icon icon-tabler icons-tabler-outline icon-tabler-return"
>
  <path
    stroke="none"
    d="M0 0h24v24H0z"
    fill="none"
  />
  <path d="M3 19a9 9 0 0 1 9 0a9 9 0 0 1 2 -1" />
  <path d="M3 6a9 9 0 0 1 9 0a9 9 0 0 1 9 0" />
  <path d="M3 6l0 13" />
  <path d="M12 6l0 13" />
  <path d="M21 6l0 4" />
  <g transform="rotate(-90, 19, 15)">
    <path d="M15 16l3 -3l3 3" />
    <path d="M18 13v9" />
  </g>
</svg>
