<svg
  id="Capa_1"
  enable-background="new 0 0 512 512"
  height="512"
  viewBox="0 0 512 512"
  width="512"
  xmlns="http://www.w3.org/2000/svg"
>
  <g>
    <g>
      <g>
        <path
          d="m427.508 512h-343.02c-5.69 0-10.302-4.612-10.302-10.302v-491.396c0-5.69 4.612-10.302 10.302-10.302h343.02c5.69 0 10.302 4.612 10.302 10.302v491.396c-.001 5.69-4.613 10.302-10.302 10.302z"
          fill="#f2eff2"
        />
      </g>
    </g>
    <path
      d="m427.512 0h-41.238c5.687 0 10.302 4.615 10.302 10.302v41.156l-18.039 71.714 18.039 81.268v46.358l-18.039 45.164 18.039 24.847v46.358l-10.302 61.227 10.302 32.149v41.156c0 5.687-4.615 10.302-10.302 10.302h41.238c5.687 0 10.302-4.615 10.302-10.302v-491.397c0-5.687-4.615-10.302-10.302-10.302z"
      fill="#e1dde1"
    />
    <g>
      <path
        d="m243.51 273.63-47.48 104.08-80.61-10.85v-315.4c0-2.85 2.31-5.15 5.15-5.15h30.86c2.13 0 4.03 1.29 4.8 3.27z"
        fill="#3ad1e0"
      />
      <path
        d="m243.51 273.63-16.68 36.56-101.52-260.61c-.76-1.95-2.64-3.25-4.74-3.27h30.86c2.13 0 4.03 1.29 4.8 3.27z"
        fill="#22c7db"
      />
      <path
        d="m310.81 465.69h-190.24c-2.84 0-5.15-2.3-5.15-5.15v-93.68c25.18-34.92 65.99-57.81 112.19-58.37l-16.07 35.21 74.5 39.08 29.56 75.9c1.32 3.37-1.17 7.01-4.79 7.01z"
        fill="#fb33a8"
      />
      <path
        d="m310.81 465.69h-30.92c3.61 0 6.11-3.64 4.79-7.01l-12.92-33.17c-1.92 4.55-2.88 9.61-2.61 14.91.01.13.01.25.01.38 0 5.92-7.39 8.87-11.45 4.36-6.77-7.49-16.03-11.24-25.29-11.24s-18.54 3.75-25.29 11.24c-1.36 1.52-3.11 2.19-4.83 2.19-3.48 0-6.84-2.78-6.62-6.93.03-.59.04-1.18.04-1.77 0-19.36-16.23-34.99-35.81-33.99-.12.01-.24.01-.37.01-5.92 0-8.87-7.4-4.37-11.46 7.49-6.76 11.24-16.03 11.24-25.29s-3.75-18.52-11.24-25.29c-1.51-1.36-2.18-3.1-2.18-4.81 0-3.48 2.78-6.84 6.92-6.64.6.04 1.19.05 1.77.05 12.81 0 23.98-7.11 29.79-17.57l34.29-1.12-14.22 31.16 74.5 39.08 29.56 75.9c1.32 3.37-1.17 7.01-4.79 7.01z"
        fill="#fb33a8"
      />
      <path
        d="m396.58 51.46v152.98c0 2.84-2.31 5.15-5.15 5.15h-32l-40.41-29.31-40.41 29.31h-17.82c-2.12 0-4.03-1.3-4.8-3.28l-59.6-152.98c-1.32-3.38 1.18-7.02 4.79-7.02h190.25c2.84 0 5.15 2.3 5.15 5.15z"
        fill="#fcb44d"
      />
      <path
        d="m396.576 51.457v152.982c0 2.843-2.308 5.151-5.151 5.151h-30.927c2.843 0 5.151-2.308 5.151-5.151v-152.982c0-2.843-2.308-5.151-5.151-5.151h30.927c2.843.001 5.151 2.308 5.151 5.151z"
        fill="#fb9927"
      />
      <g>
        <path
          d="m359.428 181.065v28.526h-80.818v-28.526c0-22.324 18.1-40.414 40.414-40.414 11.157 0 21.263 4.522 28.567 11.837 7.314 7.314 11.837 17.409 11.837 28.577z"
          fill="#ae6ad8"
        />
        <path
          d="m359.43 181.065v28.526h-29.237v-28.526c0-11.167-4.522-21.263-11.837-28.577-3.935-3.935-8.674-7.067-13.949-9.107 4.533-1.762 9.467-2.73 14.618-2.73 11.157 0 21.263 4.522 28.567 11.837 7.316 7.314 11.838 17.409 11.838 28.577z"
          fill="#975bbb"
        />
        <g>
          <g>
            <circle
              cx="319.023"
              cy="121.497"
              fill="#f2eff2"
              r="26.224"
            />
          </g>
        </g>
      </g>
      <path
        d="m396.576 250.798v70.011c0 2.845-2.306 5.151-5.151 5.151h-85.311c-2.123 0-4.029-1.303-4.8-3.281l-27.273-70.011c-1.316-3.377 1.175-7.021 4.8-7.021h112.585c2.844 0 5.15 2.306 5.15 5.151z"
        fill="#23f1a8"
      />
      <path
        d="m396.576 250.798v70.011c0 2.843-2.308 5.151-5.151 5.151h-30.927c2.843 0 5.151-2.308 5.151-5.151v-70.011c0-2.843-2.308-5.151-5.151-5.151h30.927c2.843 0 5.151 2.307 5.151 5.151z"
        fill="#27e19d"
      />
      <path
        d="m324.179 362.016h67.246c2.845 0 5.151 2.306 5.151 5.151v93.376c0 2.845-2.306 5.151-5.151 5.151h-30.866c-2.123 0-4.029-1.303-4.799-3.281l-36.38-93.376c-1.316-3.377 1.175-7.021 4.799-7.021z"
        fill="#23f1a8"
      />
      <path
        d="m396.576 367.167v93.376c0 2.843-2.308 5.151-5.151 5.151h-30.927c2.843 0 5.151-2.308 5.151-5.151v-93.376c0-2.843-2.308-5.151-5.151-5.151h30.927c2.843 0 5.151 2.308 5.151 5.151z"
        fill="#27e19d"
      />
    </g>
    <g>
      <path
        d="m269.153 413.978c.01.124.01.247.01.371 0 5.924-7.397 8.87-11.456 4.368-6.768-7.489-16.03-11.239-25.291-11.239s-18.533 3.75-25.291 11.239c-1.36 1.514-3.101 2.184-4.821 2.184-3.482 0-6.84-2.782-6.624-6.923.031-.597.041-1.185.041-1.772 0-19.367-16.236-34.995-35.809-33.996-.124.01-.247.01-.371.01-5.924 0-8.87-7.397-4.368-11.456 7.489-6.758 11.239-16.03 11.239-25.291s-3.75-18.523-11.239-25.291c-1.514-1.36-2.184-3.101-2.184-4.811 0-3.482 2.782-6.84 6.923-6.634.597.031 1.185.041 1.772.041 19.367 0 34.995-16.236 33.996-35.799-.01-.124-.01-.247-.01-.371 0-5.934 7.397-8.87 11.456-4.378 6.758 7.489 16.03 11.239 25.291 11.239 3.76 0 7.51-.618 11.095-1.844l42.526 109.158c-10.591 6.183-17.565 17.916-16.885 31.195z"
        fill="#fdef63"
      />
      <path
        d="m268.516 417.19c.406-.839.648-1.79.648-2.841 0-.123 0-.247-.01-.371-.68-13.279 6.294-25.013 16.885-31.194l-42.526-109.158c-3.585 1.226-7.335 1.844-11.095 1.844-7.992 0-15.988-2.799-22.374-8.378z"
        fill="#f3d730"
      />
    </g>
    <g>
      <g>
        <path
          d="m229.374 349.967c-4.267 0-7.726-3.459-7.726-7.726v-29.272c0-4.267 3.459-7.726 7.726-7.726s7.726 3.459 7.726 7.726v29.272c0 4.267-3.459 7.726-7.726 7.726z"
          fill="#554e55"
        />
      </g>
      <g>
        <path
          d="m229.374 377.711c-4.267 0-7.726-3.459-7.726-7.726v-2.061c0-4.267 3.459-7.726 7.726-7.726s7.726 3.459 7.726 7.726v2.061c0 4.267-3.459 7.726-7.726 7.726z"
          fill="#554e55"
        />
      </g>
    </g>
    <g>
      <g>
        <path
          d="m258.185 86.361h-18.228c-4.267 0-7.726-3.459-7.726-7.726s3.459-7.726 7.726-7.726h18.228c4.267 0 7.726 3.459 7.726 7.726 0 4.266-3.459 7.726-7.726 7.726z"
          fill="#f2eff2"
        />
      </g>
      <g>
        <path
          d="m266.269 111.168h-18.229c-4.267 0-7.726-3.459-7.726-7.726s3.459-7.726 7.726-7.726h18.228c4.267 0 7.726 3.459 7.726 7.726s-3.458 7.726-7.725 7.726z"
          fill="#f2eff2"
        />
      </g>
    </g>
  </g>
</svg>
