<?xml version="1.0" encoding="UTF-8"?>
<svg
  xmlns="http://www.w3.org/2000/svg"
  version="1.1"
  id="Capa_1"
  x="0px"
  y="0px"
  viewBox="0 0 512 512"
  style="enable-background: new 0 0 512 512"
  xml:space="preserve"
  width="512"
  height="512"
>
  <g>
    <g>
      <g>
        <path
          style="fill: #f2eff2"
          d="M422.485,504.5H89.515c-5.523,0-10-4.477-10-10v-477c0-5.523,4.477-10,10-10h332.971&#10;&#9;&#9;&#9;&#9;c5.523,0,10,4.477,10,10v477C432.485,500.023,428.008,504.5,422.485,504.5z"
        />
      </g>
    </g>
    <g>
      <g>
        <path
          style="fill: #e1dde1"
          d="M432.49,17.5v477c0,5.52-4.48,10-10,10h-40.03c5.52,0,10-4.48,10-10v-477c0-5.52-4.48-10-10-10&#10;&#9;&#9;&#9;&#9;h40.03C428.01,7.5,432.49,11.98,432.49,17.5z"
        />
      </g>
    </g>
    <g>
      <path
        style="
          fill: none;
          stroke: #000000;
          stroke-width: 15;
          stroke-linecap: round;
          stroke-linejoin: round;
          stroke-miterlimit: 10;
        "
        d="&#10;&#9;&#9;&#9;M158.639,7.5H89.515c-5.523,0-10,4.477-10,10v477c0,5.523,4.477,10,10,10h332.971c5.523,0,10-4.477,10-10v-477&#10;&#9;&#9;&#9;c0-5.523-4.477-10-10-10H191.801"
      />
    </g>
    <path
      style="fill: #3ad1e0"
      d="M392.482,52.5v83.99c0,2.761-2.239,5-5,5H241.866c-2.761,0-5-2.239-5-5V52.5c0-2.761,2.239-5,5-5&#10;&#9;&#9;h145.617C390.244,47.5,392.482,49.739,392.482,52.5z"
    />
    <path
      style="fill: #20bfd5"
      d="M392.482,52.5v83.99c0,2.76-2.24,5-5,5h-30.02c2.76,0,5-2.24,5-5V52.5c0-2.76-2.24-5-5-5h30.02&#10;&#9;&#9;C390.242,47.5,392.482,49.74,392.482,52.5z"
    />
    <path
      style="fill: #26d192"
      d="M280.6,47.5h-38.735c-2.761,0-5,2.239-5,5v83.99c0,2.761,2.239,5,5,5H280.6V47.5z"
    />

    <line
      style="
        fill: none;
        stroke: #000000;
        stroke-width: 15;
        stroke-linecap: round;
        stroke-linejoin: round;
        stroke-miterlimit: 10;
      "
      x1="280.6"
      y1="141.49"
      x2="280.6"
      y2="47.5"
    />
    <path
      style="fill: #23f1a8"
      d="M124.512,370.51h125.143c1.706,0,3.295,0.87,4.214,2.308l53.65,83.99&#10;&#9;&#9;c2.126,3.328-0.264,7.692-4.214,7.692H124.512c-2.761,0-5-2.239-5-5v-83.99C119.512,372.749,121.751,370.51,124.512,370.51z"
    />
    <g>
      <path
        style="fill: #ae6ad8"
        d="M227.87,437.622V464.5h-76.148v-26.878c0-21.034,17.054-38.079,38.079-38.079&#10;&#9;&#9;&#9;c10.512,0,20.034,4.261,26.916,11.153C223.609,417.588,227.87,427.1,227.87,437.622z"
      />
      <path
        style="fill: #975bbb"
        d="M227.872,437.62v26.88h-28.21v-26.88c0-10.52-4.26-20.03-11.15-26.92&#10;&#9;&#9;&#9;c-3.62-3.63-7.97-6.53-12.82-8.46c4.36-1.74,9.13-2.7,14.11-2.7c10.51,0,20.03,4.26,26.92,11.16&#10;&#9;&#9;&#9;C223.612,417.59,227.872,427.1,227.872,437.62z"
      />
      <path
        style="
          fill: none;
          stroke: #000000;
          stroke-width: 15;
          stroke-linecap: round;
          stroke-linejoin: round;
          stroke-miterlimit: 10;
        "
        d="&#10;&#9;&#9;&#9;M151.722,464.5v-26.878c0-21.034,17.054-38.079,38.079-38.079c10.512,0,20.034,4.261,26.916,11.153&#10;&#9;&#9;&#9;c6.892,6.892,11.153,16.404,11.153,26.926V464.5"
      />
    </g>
    <path
      style="fill: #27e19d"
      d="M303.302,464.5h-30.02c3.95,0,6.34-4.36,4.22-7.69l-53.65-83.99c-0.92-1.44-2.51-2.31-4.22-2.31&#10;&#9;&#9;h30.02c1.71,0,3.3,0.87,4.22,2.31l53.65,83.99C309.642,460.14,307.252,464.5,303.302,464.5z"
    />
    <path
      style="fill: #ae6ad8"
      d="M387.482,370.51h-78.73c-3.949,0-6.34,4.363-4.214,7.692l53.65,83.99&#10;&#9;&#9;c0.919,1.438,2.507,2.308,4.214,2.308h25.08c2.761,0,5-2.239,5-5v-83.99C392.482,372.749,390.244,370.51,387.482,370.51z"
    />
    <path
      style="fill: #975bbb"
      d="M392.482,375.51v83.99c0,2.76-2.24,5-5,5h-25.08c-0.88,0-1.72-0.23-2.46-0.66&#10;&#9;&#9;c1.51-0.86,2.52-2.48,2.52-4.34v-83.99c0-2.76-2.24-5-5-5h30.02C390.242,370.51,392.482,372.75,392.482,375.51z"
    />
    <path
      style="
        fill: none;
        stroke: #000000;
        stroke-width: 15;
        stroke-linecap: round;
        stroke-linejoin: round;
        stroke-miterlimit: 10;
      "
      d="&#10;&#9;&#9;M392.482,52.5v83.99c0,2.761-2.239,5-5,5H241.866c-2.761,0-5-2.239-5-5V52.5c0-2.761,2.239-5,5-5h145.617&#10;&#9;&#9;C390.244,47.5,392.482,49.739,392.482,52.5z"
    />
    <g>
      <path
        style="fill: #3ad1e0"
        d="M197.374,52.5v83.99c0,2.761-2.239,5-5,5h-67.862c-2.761,0-5-2.239-5-5V52.5c0-2.761,2.239-5,5-5&#10;&#9;&#9;&#9;h67.862C195.135,47.5,197.374,49.739,197.374,52.5z"
      />
      <path
        style="fill: #20bfd5"
        d="M197.372,52.5v83.99c0,2.76-2.24,5-5,5h-30.02c2.76,0,5-2.24,5-5V52.5c0-2.76-2.24-5-5-5h30.02&#10;&#9;&#9;&#9;C195.132,47.5,197.372,49.74,197.372,52.5z"
      />
      <path
        style="
          fill: none;
          stroke: #000000;
          stroke-width: 15;
          stroke-linecap: round;
          stroke-linejoin: round;
          stroke-miterlimit: 10;
        "
        d="&#10;&#9;&#9;&#9;M197.374,52.5v83.99c0,2.761-2.239,5-5,5h-67.862c-2.761,0-5-2.239-5-5V52.5c0-2.761,2.239-5,5-5h67.862&#10;&#9;&#9;&#9;C195.135,47.5,197.374,49.739,197.374,52.5z"
      />
    </g>
    <g>
      <path
        style="fill: #fb54b6"
        d="M124.512,181.49h262.97c2.761,0,5,2.239,5,5v139.02c0,2.761-2.239,5-5,5h-262.97&#10;&#9;&#9;&#9;c-2.761,0-5-2.239-5-5V186.49C119.512,183.729,121.751,181.49,124.512,181.49z"
      />
    </g>
    <path
      style="fill: #fb9927"
      d="M154.537,330.51c0-56.038,45.427-101.465,101.465-101.465s101.465,45.427,101.465,101.465H154.537z"
    />
    <path
      style="fill: #f98824"
      d="M357.462,330.51h-34.36c0-50.18-36.42-91.84-84.28-100.01c5.58-0.95,11.32-1.45,17.18-1.45&#10;&#9;&#9;C312.042,229.05,357.462,274.47,357.462,330.51z"
    />
    <path
      style="
        fill: none;
        stroke: #000000;
        stroke-width: 15;
        stroke-linecap: round;
        stroke-linejoin: round;
        stroke-miterlimit: 10;
      "
      d="&#10;&#9;&#9;M154.537,330.51c0-56.038,45.427-101.465,101.465-101.465s101.465,45.427,101.465,101.465"
    />
    <g>
      <path
        style="fill: #fb33a8"
        d="M392.482,186.49v139.02c0,2.76-2.24,5-5,5h-30.02c2.76,0,5-2.24,5-5V186.49c0-2.76-2.24-5-5-5&#10;&#9;&#9;&#9;h30.02C390.242,181.49,392.482,183.73,392.482,186.49z"
      />
    </g>
    <g>
      <g>
        <path
          style="fill: #fdef63"
          d="M342.812,247.29c-0.14,0-0.29,0-0.44-0.01c-23.32-1.19-42.66,17.42-42.66,40.5&#10;&#9;&#9;&#9;&#9;c0,0.7,0.02,1.4,0.05,2.11c0.26,4.93-3.74,8.24-7.89,8.24c-2.05,0-4.12-0.79-5.74-2.6c-8.05-8.92-19.1-13.39-30.13-13.39&#10;&#9;&#9;&#9;&#9;s-22.08,4.47-30.13,13.39c-1.62,1.81-3.69,2.6-5.74,2.6c-4.15,0-8.15-3.31-7.89-8.24c0.03-0.71,0.04-1.41,0.04-2.11&#10;&#9;&#9;&#9;&#9;c0-23.08-19.34-41.69-42.65-40.5c-0.15,0.01-0.3,0.01-0.45,0.01c-7.05,0-10.56-8.81-5.2-13.65c8.92-8.05,13.39-19.09,13.39-30.13&#10;&#9;&#9;&#9;&#9;c0-7.68-2.16-15.35-6.49-22.02h170.24c-4.33,6.67-6.49,14.34-6.49,22.02c0,11.04,4.47,22.08,13.39,30.13&#10;&#9;&#9;&#9;&#9;C353.382,238.48,349.872,247.29,342.812,247.29z"
        />
        <g>
          <line
            id="XMLID_00000127012381744132405410000009872483291948348836_"
            style="
              fill: none;
              stroke: #000000;
              stroke-width: 15;
              stroke-linecap: round;
              stroke-linejoin: round;
              stroke-miterlimit: 10;
            "
            x1="279.433"
            y1="224.908"
            x2="279.433"
            y2="224.805"
          />

          <line
            id="XMLID_00000080918978500845250090000017315552773041050031_"
            style="
              fill: none;
              stroke: #000000;
              stroke-width: 15;
              stroke-linecap: round;
              stroke-linejoin: round;
              stroke-miterlimit: 10;
            "
            x1="256.002"
            y1="224.908"
            x2="256.002"
            y2="224.805"
          />

          <line
            id="XMLID_00000140711681861242238370000008769002181148908969_"
            style="
              fill: none;
              stroke: #000000;
              stroke-width: 15;
              stroke-linecap: round;
              stroke-linejoin: round;
              stroke-miterlimit: 10;
            "
            x1="232.572"
            y1="224.908"
            x2="232.572"
            y2="224.805"
          />
        </g>
        <path
          style="fill: #f3d730"
          d="M342.812,247.3c-0.15,0-0.29,0-0.43-0.02c-23.33-1.19-42.66,17.43-42.66,40.5&#10;&#9;&#9;&#9;&#9;c0,0.7,0.01,1.39,0.05,2.11c0.25,4.93-3.75,8.25-7.89,8.25c-2.06,0-4.13-0.8-5.75-2.61c-6.75-7.46-15.58-11.81-24.76-13.03&#10;&#9;&#9;&#9;&#9;c29.09-14.37,49.1-44.34,49.1-78.98c0-7.61-0.97-14.99-2.78-22.03h33.42c-4.32,6.67-6.48,14.35-6.48,22.02&#10;&#9;&#9;&#9;&#9;c0,11.04,4.47,22.09,13.38,30.14C353.382,238.47,349.882,247.3,342.812,247.3z"
        />
      </g>
      <path
        style="
          fill: none;
          stroke: #000000;
          stroke-width: 15;
          stroke-linecap: round;
          stroke-linejoin: round;
          stroke-miterlimit: 10;
        "
        d="&#10;&#9;&#9;&#9;M341.122,181.49c-4.33,6.67-6.49,14.34-6.49,22.02c0,11.04,4.47,22.08,13.39,30.13c5.36,4.84,1.85,13.65-5.21,13.65&#10;&#9;&#9;&#9;c-0.14,0-0.29,0-0.44-0.01c-23.32-1.19-42.66,17.42-42.66,40.5c0,0.7,0.02,1.4,0.05,2.11c0.26,4.93-3.74,8.24-7.89,8.24&#10;&#9;&#9;&#9;c-2.05,0-4.12-0.79-5.74-2.6c-8.05-8.92-19.1-13.39-30.13-13.39s-22.08,4.47-30.13,13.39c-1.62,1.81-3.69,2.6-5.74,2.6&#10;&#9;&#9;&#9;c-4.15,0-8.15-3.31-7.89-8.24c0.03-0.71,0.04-1.41,0.04-2.11c0-23.08-19.34-41.69-42.65-40.5c-0.15,0.01-0.3,0.01-0.45,0.01&#10;&#9;&#9;&#9;c-7.05,0-10.56-8.81-5.2-13.65c8.92-8.05,13.39-19.09,13.39-30.13c0-7.68-2.16-15.35-6.49-22.02"
      />
    </g>
    <g>
      <path
        style="
          fill: none;
          stroke: #000000;
          stroke-width: 15;
          stroke-linecap: round;
          stroke-linejoin: round;
          stroke-miterlimit: 10;
        "
        d="&#10;&#9;&#9;&#9;M208.726,181.49h-84.213c-2.761,0-5,2.239-5,5v139.02c0,2.761,2.239,5,5,5h262.97c2.761,0,5-2.239,5-5V186.49c0-2.761-2.239-5-5-5&#10;&#9;&#9;&#9;H241.888"
      />
    </g>
    <path
      style="
        fill: none;
        stroke: #000000;
        stroke-width: 15;
        stroke-linecap: round;
        stroke-linejoin: round;
        stroke-miterlimit: 10;
      "
      d="&#10;&#9;&#9;M124.512,370.51h125.143c1.706,0,3.295,0.87,4.214,2.308l53.65,83.99c2.126,3.328-0.264,7.692-4.214,7.692H124.512&#10;&#9;&#9;c-2.761,0-5-2.239-5-5v-83.99C119.512,372.749,121.751,370.51,124.512,370.51z"
    />
    <path
      style="
        fill: none;
        stroke: #000000;
        stroke-width: 15;
        stroke-linecap: round;
        stroke-linejoin: round;
        stroke-miterlimit: 10;
      "
      d="&#10;&#9;&#9;M392.482,397.976V375.51c0-2.761-2.239-5-5-5h-78.73c-3.949,0-6.34,4.363-4.214,7.692l53.65,83.99&#10;&#9;&#9;c0.919,1.438,2.507,2.308,4.214,2.308h25.08c2.761,0,5-2.239,5-5v-28.362"
    />
    <g>
      <g>
        <g>
          <circle
            style="fill: #d8b2ec"
            cx="189.8"
            cy="381.497"
            r="24.709"
          />

          <circle
            style="
              fill: none;
              stroke: #000000;
              stroke-width: 15;
              stroke-linecap: round;
              stroke-linejoin: round;
              stroke-miterlimit: 10;
            "
            cx="189.8"
            cy="381.497"
            r="24.709"
          />
        </g>
      </g>
    </g>
    <g>
      <line
        id="XMLID_00000028301319025648580530000009457246182494066313_"
        style="
          fill: none;
          stroke: #000000;
          stroke-width: 15;
          stroke-linecap: round;
          stroke-linejoin: round;
          stroke-miterlimit: 10;
        "
        x1="314.674"
        y1="108.185"
        x2="354.689"
        y2="108.075"
      />

      <line
        style="
          fill: none;
          stroke: #000000;
          stroke-width: 15;
          stroke-linecap: round;
          stroke-linejoin: round;
          stroke-miterlimit: 10;
        "
        x1="333.566"
        y1="80.805"
        x2="354.689"
        y2="80.805"
      />
    </g>
  </g>
</svg>
