<svg
  id="Capa_1"
  enable-background="new 0 0 512 512"
  height="512"
  viewBox="0 0 512 512"
  width="512"
  xmlns="http://www.w3.org/2000/svg"
>
  <g>
    <g>
      <g>
        <path
          d="m427.508 512h-343.02c-5.69 0-10.302-4.612-10.302-10.302v-491.396c0-5.69 4.612-10.302 10.302-10.302h343.02c5.69 0 10.302 4.612 10.302 10.302v491.396c-.001 5.69-4.613 10.302-10.302 10.302z"
          fill="#f2eff2"
        />
      </g>
    </g>
    <path
      d="m427.512 0h-41.238c5.687 0 10.302 4.615 10.302 10.302v36.12l-18.016 49.462 18.016 36.952v51.701l-13.787 87.003 13.787 55.974v51.669l-18.016 52.406 18.016 34.008v36.1c0 5.687-4.615 10.302-10.302 10.302h41.238c5.687 0 10.302-4.615 10.302-10.302v-491.395c0-5.687-4.615-10.302-10.302-10.302z"
      fill="#e1dde1"
    />
    <path
      d="m396.6 46.36v86.52c0 2.85-2.31 5.15-5.15 5.15h-110.11l-22.53-48.41 22.53-48.41h110.11c2.84 0 5.15 2.3 5.15 5.15z"
      fill="#3ad1e0"
    />
    <path
      d="m396.599 46.358v86.525c0 2.843-2.308 5.151-5.151 5.151h-30.926c2.843 0 5.151-2.308 5.151-5.151v-86.525c0-2.843-2.308-5.151-5.151-5.151h30.926c2.844 0 5.151 2.308 5.151 5.151z"
      fill="#20bfd5"
    />
    <path
      d="m281.34 41.207h-39.904c-2.845 0-5.151 2.306-5.151 5.151v86.525c0 2.845 2.306 5.151 5.151 5.151h39.904z"
      fill="#23f1a8"
    />
    <path
      d="m304.73 470.79h-77.71l-39.22-20.29-39.23 20.29h-28.03c-2.84 0-5.15-2.3-5.15-5.15v-86.52c0-2.85 2.31-5.15 5.15-5.15h128.92c1.76 0 3.4.89 4.34 2.37l55.27 86.53c2.19 3.43-.27 7.92-4.34 7.92z"
      fill="#23f1a8"
    />
    <g>
      <path
        d="m227.019 443.104v27.689h-78.446v-27.689c0-21.669 17.569-39.228 39.228-39.228 10.83 0 20.639 4.39 27.729 11.489 7.099 7.1 11.489 16.899 11.489 27.739z"
        fill="#ae6ad8"
      />
      <path
        d="m227.021 443.101v27.691h-29.061v-27.691c0-10.838-4.389-20.634-11.486-27.732-3.729-3.74-8.211-6.727-13.207-8.715 4.492-1.793 9.406-2.782 14.536-2.782 10.827 0 20.635 4.389 27.732 11.497 7.097 7.098 11.486 16.895 11.486 27.732z"
        fill="#975bbb"
      />
    </g>
    <path
      d="m304.728 470.793h-30.926c4.069 0 6.531-4.492 4.347-7.922l-55.269-86.525c-.948-1.483-2.586-2.38-4.347-2.38h30.926c1.762 0 3.4.896 4.347 2.38l55.269 86.525c2.184 3.43-.278 7.922-4.347 7.922z"
      fill="#27e19d"
    />
    <path
      d="m391.448 373.966h-81.106c-4.068 0-6.531 4.495-4.341 7.924l55.269 86.525c.946 1.482 2.583 2.378 4.341 2.378h25.837c2.845 0 5.151-2.306 5.151-5.151v-86.525c0-2.845-2.306-5.151-5.151-5.151z"
      fill="#ae6ad8"
    />
    <path
      d="m396.599 379.117v86.525c0 2.843-2.308 5.151-5.151 5.151h-25.837c-.907 0-1.772-.237-2.534-.68 1.556-.886 2.596-2.555 2.596-4.471v-86.525c0-2.843-2.308-5.151-5.151-5.151h30.926c2.844 0 5.151 2.308 5.151 5.151z"
      fill="#975bbb"
    />
    <g>
      <path
        d="m195.602 46.358v86.525c0 2.845-2.306 5.151-5.151 5.151h-69.91c-2.845 0-5.151-2.306-5.151-5.151v-86.525c0-2.845 2.306-5.151 5.151-5.151h69.91c2.845 0 5.151 2.306 5.151 5.151z"
        fill="#3ad1e0"
      />
      <path
        d="m195.6 46.358v86.525c0 2.843-2.308 5.151-5.151 5.151h-30.926c2.843 0 5.151-2.308 5.151-5.151v-86.525c0-2.843-2.308-5.151-5.151-5.151h30.926c2.844 0 5.151 2.308 5.151 5.151z"
        fill="#20bfd5"
      />
    </g>
    <g>
      <path
        d="m396.6 184.39v143.22c0 2.84-2.31 5.15-5.15 5.15h-30.93l-104.53-27.53-104.52 27.53h-30.93c-2.84 0-5.15-2.31-5.15-5.15v-143.22c0-2.84 2.31-5.15 5.15-5.15h47.77l87.68 16.15 87.69-16.15h47.77c2.84 0 5.15 2.31 5.15 5.15z"
        fill="#fb54b6"
      />
    </g>
    <path
      d="m151.473 332.759c0-57.729 46.798-104.527 104.527-104.527s104.527 46.798 104.527 104.527z"
      fill="#fb9927"
    />
    <path
      d="m360.522 332.759h-35.397c0-51.694-37.519-94.612-86.824-103.028 5.748-.979 11.662-1.494 17.699-1.494 57.731 0 104.522 46.79 104.522 104.522z"
      fill="#f98824"
    />
    <g>
      <path
        d="m396.599 184.392v143.216c0 2.843-2.308 5.151-5.151 5.151h-30.926c2.843 0 5.151-2.308 5.151-5.151v-143.216c0-2.843-2.308-5.151-5.151-5.151h30.926c2.844 0 5.151 2.308 5.151 5.151z"
        fill="#fb33a8"
      />
    </g>
    <g>
      <g>
        <path
          d="m345.43 247.027c-.144 0-.299 0-.453-.01-24.024-1.226-43.947 17.946-43.947 41.722 0 .721.021 1.442.051 2.174.268 5.079-3.853 8.489-8.128 8.489-2.112 0-4.244-.814-5.913-2.678-8.293-9.189-19.676-13.794-31.039-13.794s-22.746 4.605-31.039 13.794c-1.669 1.865-3.801 2.678-5.913 2.678-4.275 0-8.396-3.41-8.128-8.489.031-.731.041-1.453.041-2.174 0-23.777-19.924-42.948-43.937-41.722-.155.01-.309.01-.464.01-7.263 0-10.879-9.076-5.357-14.062 9.189-8.293 13.794-19.666 13.794-31.039 0-7.912-2.225-15.813-6.686-22.685h175.378c-4.461 6.871-6.686 14.773-6.686 22.685 0 11.373 4.605 22.746 13.794 31.039 5.521 4.986 1.905 14.062-5.368 14.062z"
          fill="#fdef63"
        />
        <g>
          <g id="XMLID_00000127012381744132405410000009872483291948348836_">
            <path
              d="m280.138 231.696c-4.268 0-7.726-3.459-7.726-7.726v-.107c0-4.267 3.459-7.726 7.726-7.726s7.726 3.459 7.726 7.726v.107c0 4.267-3.459 7.726-7.726 7.726z"
              fill="#554e55"
            />
          </g>
          <g id="XMLID_00000080918978500845250090000017315552773041050031_">
            <path
              d="m256 231.696c-4.267 0-7.726-3.459-7.726-7.726v-.107c0-4.267 3.459-7.726 7.726-7.726 4.268 0 7.726 3.459 7.726 7.726v.107c0 4.267-3.458 7.726-7.726 7.726z"
              fill="#554e55"
            />
          </g>
          <g id="XMLID_00000140711681861242238370000008769002181148908969_">
            <path
              d="m231.862 231.696c-4.267 0-7.726-3.459-7.726-7.726v-.107c0-4.267 3.459-7.726 7.726-7.726s7.726 3.459 7.726 7.726v.107c.001 4.267-3.459 7.726-7.726 7.726z"
              fill="#554e55"
            />
          </g>
        </g>
        <path
          d="m345.43 247.037c-.155 0-.299 0-.443-.021-24.034-1.226-43.948 17.956-43.948 41.722 0 .721.01 1.432.052 2.174.258 5.079-3.863 8.499-8.128 8.499-2.122 0-4.255-.824-5.924-2.689-6.954-7.685-16.05-12.167-25.507-13.423 29.968-14.804 50.582-45.678 50.582-81.364 0-7.84-.999-15.442-2.864-22.695h34.429c-4.45 6.871-6.676 14.783-6.676 22.685 0 11.373 4.605 22.757 13.784 31.05 5.532 4.966 1.926 14.062-5.357 14.062z"
          fill="#f3d730"
        />
      </g>
    </g>
    <g>
      <g>
        <g>
          <circle
            cx="187.8"
            cy="385.284"
            fill="#d8b2ec"
            r="25.455"
          />
        </g>
      </g>
    </g>
    <g>
      <g id="XMLID_00000028301319025648580530000009457246182494066313_">
        <path
          d="m316.443 111.45c-4.258 0-7.714-3.445-7.726-7.705-.012-4.267 3.438-7.736 7.705-7.747l41.222-.114h.021c4.258 0 7.714 3.445 7.726 7.705.012 4.267-3.438 7.736-7.705 7.747l-41.222.114c-.007 0-.014 0-.021 0z"
          fill="#f2eff2"
        />
      </g>
      <g>
        <path
          d="m357.665 83.243h-21.761c-4.268 0-7.726-3.459-7.726-7.726s3.459-7.726 7.726-7.726h21.761c4.268 0 7.726 3.459 7.726 7.726s-3.458 7.726-7.726 7.726z"
          fill="#f2eff2"
        />
      </g>
    </g>
  </g>
</svg>
