<?xml version="1.0" encoding="UTF-8"?>
<svg
  xmlns="http://www.w3.org/2000/svg"
  version="1.1"
  id="Capa_1"
  x="0px"
  y="0px"
  viewBox="0 0 512 512"
  style="enable-background: new 0 0 512 512"
  xml:space="preserve"
  width="512"
  height="512"
>
  <g>
    <g>
      <g>
        <path
          style="fill: #f2eff2"
          d="M422.485,504.5H89.515c-5.523,0-10-4.477-10-10v-477c0-5.523,4.477-10,10-10h332.971&#10;&#9;&#9;&#9;&#9;c5.523,0,10,4.477,10,10v477C432.485,500.023,428.008,504.5,422.485,504.5z"
        />
      </g>
    </g>
    <g>
      <g>
        <path
          style="fill: #e1dde1"
          d="M432.49,17.5v477c0,5.52-4.48,10-10,10h-40.03c5.52,0,10-4.48,10-10v-477c0-5.52-4.48-10-10-10&#10;&#9;&#9;&#9;&#9;h40.03C428.01,7.5,432.49,11.98,432.49,17.5z"
        />
      </g>
    </g>
    <g>
      <path
        style="
          fill: none;
          stroke: #000000;
          stroke-width: 15;
          stroke-linecap: round;
          stroke-linejoin: round;
          stroke-miterlimit: 10;
        "
        d="&#10;&#9;&#9;&#9;M334.56,7.5H89.515c-5.523,0-10,4.477-10,10v477c0,5.523,4.477,10,10,10h332.971c5.523,0,10-4.477,10-10v-477&#10;&#9;&#9;&#9;c0-5.523-4.477-10-10-10h-54.763"
      />
    </g>
    <g>
      <path
        style="fill: #3ad1e0"
        d="M313.86,452.74L159.16,55.63c-0.75-1.92-2.6-3.18-4.66-3.18h-29.96c-2.76,0-5,2.24-5,5v397.1&#10;&#9;&#9;&#9;c0,2.76,2.24,5,5,5h184.67C312.72,459.55,315.14,456.01,313.86,452.74z"
      />
      <path
        style="fill: #22c7db"
        d="M309.21,459.55h-30.02c3.51,0,5.93-3.54,4.65-6.81L129.14,55.63c-0.74-1.9-2.56-3.16-4.6-3.18&#10;&#9;&#9;&#9;h29.96c2.06,0,3.91,1.26,4.66,3.18l154.7,397.11C315.14,456.01,312.72,459.55,309.21,459.55z"
      />
      <path
        style="fill: #fb33a8"
        d="M258.193,309.845c-9.05-1.894-18.424-2.909-28.037-2.909c-45.55,0-85.862,22.354-110.616,56.676&#10;&#9;&#9;&#9;v90.938c0,2.76,2.24,5,5,5h184.67c3.51,0,5.93-3.54,4.65-6.81L258.193,309.845z"
      />
      <path
        style="fill: #ee2d9a"
        d="M193.362,311.966c-5.64,10.161-16.48,17.055-28.912,17.055c-0.57,0-1.14-0.01-1.72-0.04&#10;&#9;&#9;&#9;c-4.02-0.2-6.72,3.06-6.72,6.44c0,1.66,0.65,3.35,2.12,4.67c7.27,6.57,10.91,15.56,10.91,24.55s-3.64,17.99-10.91,24.55&#10;&#9;&#9;&#9;c-4.37,3.94-1.51,11.12,4.24,11.12c0.12,0,0.24,0,0.36-0.01c19-0.97,34.76,14.2,34.76,33c0,0.57-0.01,1.14-0.04,1.72&#10;&#9;&#9;&#9;c-0.21,4.02,3.05,6.72,6.43,6.72c1.67,0,3.36-0.65,4.68-2.12c6.56-7.27,15.56-10.91,24.55-10.91c8.99,0,17.98,3.64,24.55,10.91&#10;&#9;&#9;&#9;c3.94,4.37,11.12,1.51,11.12-4.24c0-0.12,0-0.24-0.01-0.36c-0.264-5.151,0.666-10.058,2.527-14.479l12.543,32.197&#10;&#9;&#9;&#9;c1.28,3.27-1.14,6.81-4.65,6.81h30.02c3.51,0,5.93-3.54,4.65-6.81l-55.667-142.895L193.362,311.966z"
      />
      <path
        style="
          fill: none;
          stroke: #000000;
          stroke-width: 15;
          stroke-linecap: round;
          stroke-linejoin: round;
          stroke-miterlimit: 10;
        "
        d="&#10;&#9;&#9;&#9;M230.156,306.937c-45.55,0-85.862,22.354-110.616,56.676"
      />
      <path
        style="fill: #fcb44d"
        d="M392.46,57.45v148.5c0,2.76-2.24,5-5,5H260.65c-2.06,0-3.91-1.26-4.66-3.18l-57.85-148.5&#10;&#9;&#9;&#9;c-1.28-3.28,1.14-6.82,4.65-6.82h184.67C390.22,52.45,392.46,54.69,392.46,57.45z"
      />
      <path
        style="fill: #fb9927"
        d="M392.46,57.45v148.5c0,2.76-2.24,5-5,5h-30.021c2.76,0,5-2.24,5-5V57.45c0-2.76-2.24-5-5-5h30.021&#10;&#9;&#9;&#9;C390.22,52.45,392.46,54.69,392.46,57.45z"
      />
      <g>
        <path
          style="fill: #ae6ad8"
          d="M356.4,183.26v27.69h-78.45v-27.69c0-21.67,17.57-39.23,39.23-39.23&#10;&#9;&#9;&#9;&#9;c10.83,0,20.64,4.39,27.73,11.49C352.01,162.62,356.4,172.42,356.4,183.26z"
        />
        <path
          style="fill: #975bbb"
          d="M356.402,183.26v27.69h-28.38v-27.69c0-10.84-4.39-20.64-11.49-27.74&#10;&#9;&#9;&#9;&#9;c-3.82-3.82-8.42-6.86-13.54-8.84c4.4-1.71,9.19-2.65,14.19-2.65c10.83,0,20.64,4.39,27.73,11.49&#10;&#9;&#9;&#9;&#9;C352.012,162.62,356.402,172.42,356.402,183.26z"
        />
        <path
          style="
            fill: none;
            stroke: #000000;
            stroke-width: 15;
            stroke-linecap: round;
            stroke-linejoin: round;
            stroke-miterlimit: 10;
          "
          d="&#10;&#9;&#9;&#9;&#9;M277.95,210.95v-27.69c0-21.67,17.57-39.23,39.23-39.23c10.83,0,20.64,4.39,27.73,11.49c7.1,7.1,11.49,16.9,11.49,27.74v27.69"
        />
        <g>
          <circle
            style="fill: #f2eff2"
            cx="317.179"
            cy="125.438"
            r="25.456"
          />

          <circle
            style="
              fill: none;
              stroke: #000000;
              stroke-width: 15;
              stroke-linecap: round;
              stroke-linejoin: round;
              stroke-miterlimit: 10;
            "
            cx="317.179"
            cy="125.438"
            r="25.456"
          />
        </g>
      </g>
      <path
        style="fill: #23f1a8"
        d="M392.46,250.95v67.96c0,2.761-2.239,5-5,5h-82.812c-2.061,0-3.911-1.265-4.659-3.185l-26.474-67.96&#10;&#9;&#9;&#9;c-1.277-3.278,1.141-6.815,4.659-6.815H387.46C390.221,245.95,392.46,248.189,392.46,250.95z"
      />
      <path
        style="fill: #27e19d"
        d="M392.46,250.95v67.96c0,2.76-2.24,5-5,5h-30.021c2.76,0,5-2.24,5-5v-67.96c0-2.76-2.24-5-5-5&#10;&#9;&#9;&#9;h30.021C390.22,245.95,392.46,248.19,392.46,250.95z"
      />
      <path
        style="fill: #23f1a8"
        d="M322.184,358.91h65.276c2.761,0,5,2.239,5,5v90.64c0,2.761-2.239,5-5,5h-29.962&#10;&#9;&#9;&#9;c-2.061,0-3.911-1.265-4.659-3.185l-35.314-90.64C316.248,362.447,318.666,358.91,322.184,358.91z"
      />
      <path
        style="fill: #27e19d"
        d="M392.46,363.91v90.64c0,2.76-2.24,5-5,5h-30.021c2.76,0,5-2.24,5-5v-90.64c0-2.76-2.24-5-5-5&#10;&#9;&#9;&#9;h30.021C390.22,358.91,392.46,361.15,392.46,363.91z"
      />
      <path
        style="
          fill: none;
          stroke: #000000;
          stroke-width: 15;
          stroke-linecap: round;
          stroke-linejoin: round;
          stroke-miterlimit: 10;
        "
        d="&#10;&#9;&#9;&#9;M119.54,242.003V454.55c0,2.761,2.239,5,5,5h184.666c3.518,0,5.936-3.537,4.659-6.815l-154.704-397.1&#10;&#9;&#9;&#9;c-0.748-1.92-2.598-3.185-4.659-3.185H124.54c-2.761,0-5,2.239-5,5v151.391"
      />
      <path
        style="
          fill: none;
          stroke: #000000;
          stroke-width: 15;
          stroke-linecap: round;
          stroke-linejoin: round;
          stroke-miterlimit: 10;
        "
        d="&#10;&#9;&#9;&#9;M392.46,57.45v148.5c0,2.761-2.239,5-5,5H260.648c-2.061,0-3.911-1.265-4.659-3.185l-57.854-148.5&#10;&#9;&#9;&#9;c-1.277-3.278,1.141-6.815,4.659-6.815H387.46C390.221,52.45,392.46,54.689,392.46,57.45z"
      />
      <path
        style="
          fill: none;
          stroke: #000000;
          stroke-width: 15;
          stroke-linecap: round;
          stroke-linejoin: round;
          stroke-miterlimit: 10;
        "
        d="&#10;&#9;&#9;&#9;M306.627,245.95h-28.454c-3.518,0-5.936,3.537-4.659,6.815l26.474,67.96c0.748,1.92,2.598,3.185,4.659,3.185h82.812&#10;&#9;&#9;&#9;c2.761,0,5-2.239,5-5v-67.96c0-2.761-2.239-5-5-5h-47.67"
      />
      <path
        style="
          fill: none;
          stroke: #000000;
          stroke-width: 15;
          stroke-linecap: round;
          stroke-linejoin: round;
          stroke-miterlimit: 10;
        "
        d="&#10;&#9;&#9;&#9;M322.184,358.91h65.276c2.761,0,5,2.239,5,5v90.64c0,2.761-2.239,5-5,5h-29.962c-2.061,0-3.911-1.265-4.659-3.185l-35.314-90.64&#10;&#9;&#9;&#9;C316.248,362.447,318.666,358.91,322.184,358.91z"
      />
    </g>
    <g>
      <path
        style="fill: #fdef63"
        d="M268.77,409.35c0.01,0.12,0.01,0.24,0.01,0.36c0,5.75-7.18,8.61-11.12,4.24&#10;&#9;&#9;&#9;c-6.57-7.27-15.56-10.91-24.55-10.91c-8.99,0-17.99,3.64-24.55,10.91c-1.32,1.47-3.01,2.12-4.68,2.12c-3.38,0-6.64-2.7-6.43-6.72&#10;&#9;&#9;&#9;c0.03-0.58,0.04-1.15,0.04-1.72c0-18.8-15.76-33.97-34.76-33c-0.12,0.01-0.24,0.01-0.36,0.01c-5.75,0-8.61-7.18-4.24-11.12&#10;&#9;&#9;&#9;c7.27-6.56,10.91-15.56,10.91-24.55s-3.64-17.98-10.91-24.55c-1.47-1.32-2.12-3.01-2.12-4.67c0-3.38,2.7-6.64,6.72-6.44&#10;&#9;&#9;&#9;c0.58,0.03,1.15,0.04,1.72,0.04c18.8,0,33.97-15.76,33-34.75c-0.01-0.12-0.01-0.24-0.01-0.36c0-5.76,7.18-8.61,11.12-4.25&#10;&#9;&#9;&#9;c6.56,7.27,15.56,10.91,24.55,10.91c3.65,0,7.29-0.6,10.77-1.79l41.28,105.96C274.88,385.07,268.11,396.46,268.77,409.35z"
      />
      <path
        style="fill: #f3d730"
        d="M268.151,412.468c0.394-0.814,0.629-1.738,0.629-2.758c0-0.12,0-0.24-0.01-0.36&#10;&#9;&#9;&#9;c-0.66-12.89,6.11-24.28,16.39-30.28l-41.28-105.96c-3.48,1.19-7.12,1.79-10.77,1.79c-7.758,0-15.52-2.717-21.718-8.132&#10;&#9;&#9;&#9;L268.151,412.468z"
      />
      <path
        style="
          fill: none;
          stroke: #000000;
          stroke-width: 15;
          stroke-linecap: round;
          stroke-linejoin: round;
          stroke-miterlimit: 10;
        "
        d="&#10;&#9;&#9;&#9;M268.77,409.35c0.01,0.12,0.01,0.24,0.01,0.36c0,5.75-7.18,8.61-11.12,4.24c-6.57-7.27-15.56-10.91-24.55-10.91&#10;&#9;&#9;&#9;c-8.99,0-17.99,3.64-24.55,10.91c-1.32,1.47-3.01,2.12-4.68,2.12c-3.38,0-6.64-2.7-6.43-6.72c0.03-0.58,0.04-1.15,0.04-1.72&#10;&#9;&#9;&#9;c0-18.8-15.76-33.97-34.76-33c-0.12,0.01-0.24,0.01-0.36,0.01c-5.75,0-8.61-7.18-4.24-11.12c7.27-6.56,10.91-15.56,10.91-24.55&#10;&#9;&#9;&#9;s-3.64-17.98-10.91-24.55c-1.47-1.32-2.12-3.01-2.12-4.67c0-3.38,2.7-6.64,6.72-6.44c0.58,0.03,1.15,0.04,1.72,0.04&#10;&#9;&#9;&#9;c18.8,0,33.97-15.76,33-34.75c-0.01-0.12-0.01-0.24-0.01-0.36c0-5.76,7.18-8.61,11.12-4.25c6.56,7.27,15.56,10.91,24.55,10.91&#10;&#9;&#9;&#9;c3.65,0,7.29-0.6,10.77-1.79l41.28,105.96C274.88,385.07,268.11,396.46,268.77,409.35z"
      />
    </g>
    <g>
      <line
        style="
          fill: none;
          stroke: #000000;
          stroke-width: 15;
          stroke-linecap: round;
          stroke-linejoin: round;
          stroke-miterlimit: 10;
        "
        x1="230.156"
        y1="339.714"
        x2="230.156"
        y2="311.299"
      />

      <line
        style="
          fill: none;
          stroke: #000000;
          stroke-width: 15;
          stroke-linecap: round;
          stroke-linejoin: round;
          stroke-miterlimit: 10;
        "
        x1="230.156"
        y1="364.644"
        x2="230.156"
        y2="366.646"
      />
    </g>
    <g>
      <line
        style="
          fill: none;
          stroke: #000000;
          stroke-width: 15;
          stroke-linecap: round;
          stroke-linejoin: round;
          stroke-miterlimit: 10;
        "
        x1="240.429"
        y1="83.83"
        x2="258.124"
        y2="83.83"
      />

      <line
        style="
          fill: none;
          stroke: #000000;
          stroke-width: 15;
          stroke-linecap: round;
          stroke-linejoin: round;
          stroke-miterlimit: 10;
        "
        x1="248.276"
        y1="107.911"
        x2="265.97"
        y2="107.911"
      />
    </g>
  </g>
</svg>
