<svg
  id="Capa_1"
  enable-background="new 0 0 512 512"
  viewBox="0 0 512 512"
  xmlns="http://www.w3.org/2000/svg"
>
  <g>
    <g>
      <path
        d="m369.32 512h-226.64c-45.516 0-82.414-36.898-82.414-82.414v-347.172c0-45.516 36.898-82.414 82.414-82.414h226.64c45.516 0 82.414 36.898 82.414 82.414v347.171c0 45.517-36.898 82.415-82.414 82.415z"
        fill="#636978"
      />
    </g>
    <g>
      <path
        d="m225.095 450.189v-388.378c0-34.137 27.673-61.811 61.81-61.811h-144.225c-45.516 0-82.414 36.898-82.414 82.414v347.171c0 45.516 36.898 82.414 82.414 82.414h144.225c-34.137.001-61.81-27.673-61.81-61.81z"
        fill="#555a66"
      />
    </g>
    <g>
      <path
        d="m369.32 61.811h-226.64c-11.379 0-20.604 9.225-20.604 20.604v336.869c0 11.379 9.225 20.604 20.604 20.604h226.64c11.379 0 20.604-9.225 20.604-20.604v-336.87c0-11.379-9.225-20.603-20.604-20.603z"
        fill="#96e8ff"
      />
    </g>
    <g>
      <path
        d="m122.076 82.414v336.869c0 11.379 9.225 20.604 20.604 20.604h82.414v-378.076h-82.414c-11.379 0-20.604 9.224-20.604 20.603z"
        fill="#80dbff"
      />
    </g>
    <g>
      <path
        d="m256 111.277c-27.66-8.24-55.124-9.125-82.742-2.655-5.835 1.367-9.975 6.555-9.975 12.548v95.771c0 6.566 6.064 11.463 12.479 10.063 23.872-5.21 47.636-4.921 71.52.866 5.731 1.389 11.704 1.389 17.435 0 23.884-5.788 47.648-6.077 71.52-.866 6.415 1.4 12.479-3.497 12.479-10.063 0-40.343 0-55.429 0-95.771 0-5.993-4.139-11.181-9.975-12.548-27.617-6.471-55.081-5.585-82.741 2.655z"
        fill="#fff"
      />
    </g>
    <g>
      <path
        d="m173.258 108.622c-5.835 1.367-9.975 6.555-9.975 12.548v95.771c0 6.566 6.064 11.463 12.479 10.063 23.872-5.21 47.636-4.921 71.52.866 2.866.694 5.791 1.041 8.717 1.041v-117.634c-27.659-8.24-55.123-9.126-82.741-2.655z"
        fill="#f5fafc"
      />
    </g>
    <g>
      <path
        d="m205.037 104.432c-10.584.315-21.171 1.704-31.781 4.19-5.834 1.367-9.973 6.56-9.973 12.552v95.761c0 6.547 6.037 11.478 12.432 10.08 23.888-5.221 47.667-4.935 71.567.856 2.866.694 8.717 1.042 8.717 1.042 0-13.231-13.741-21.854-26.952-27.087-14.54-5.759-24.011-19.905-24.011-35.544v-61.85z"
        fill="#e1f1fa"
      />
    </g>
    <g>
      <g>
        <path
          d="m338.414 289.266h-164.829c-4.142 0-7.5-3.357-7.5-7.5s3.358-7.5 7.5-7.5h164.829c4.143 0 7.5 3.357 7.5 7.5s-3.357 7.5-7.5 7.5z"
          fill="#19cffc"
        />
      </g>
      <g>
        <path
          d="m338.414 330.473h-164.829c-4.142 0-7.5-3.357-7.5-7.5s3.358-7.5 7.5-7.5h164.829c4.143 0 7.5 3.357 7.5 7.5s-3.357 7.5-7.5 7.5z"
          fill="#19cffc"
        />
      </g>
      <g>
        <g>
          <path
            d="m191.667 385.134c-4.142 0-7.5-3.357-7.5-7.5v-12.362c0-4.143 3.358-7.5 7.5-7.5s7.5 3.357 7.5 7.5v12.362c0 4.142-3.358 7.5-7.5 7.5z"
            fill="#495560"
          />
        </g>
        <g>
          <path
            d="m320.333 385.134c-4.143 0-7.5-3.357-7.5-7.5v-12.362c0-4.143 3.357-7.5 7.5-7.5s7.5 3.357 7.5 7.5v12.362c0 4.142-3.357 7.5-7.5 7.5z"
            fill="#495560"
          />
        </g>
        <g>
          <path
            d="m256 392.493c-8.668 0-16.911-3.754-22.615-10.3-2.721-3.123-2.396-7.86.727-10.582 3.122-2.721 7.86-2.396 10.582.727 2.855 3.276 6.976 5.155 11.307 5.155s8.452-1.879 11.307-5.155c2.723-3.122 7.457-3.447 10.582-.727 3.122 2.722 3.448 7.459.727 10.582-5.706 6.546-13.949 10.3-22.617 10.3z"
            fill="#495560"
          />
        </g>
      </g>
    </g>
  </g>
  <g />
  <g />
  <g />
  <g />
  <g />
  <g />
  <g />
  <g />
  <g />
  <g />
  <g />
  <g />
  <g />
  <g />
  <g />
</svg>
