<svg
  version="1.1"
  id="Capa_1"
  xmlns="http://www.w3.org/2000/svg"
  x="0px"
  y="0px"
  viewBox="0 0 512 512"
  style="enable-background: new 0 0 512 512"
  xml:space="preserve"
>
  <g>
    <path
      style="fill: #636978"
      d="M366,504.5H146c-44.183,0-80-35.817-80-80v-337c0-44.183,35.817-80,80-80h220&#10;&#9;&#9;c44.183,0,80,35.817,80,80v337C446,468.683,410.183,504.5,366,504.5z"
    />
    <path
      style="fill: #555a66"
      d="M226,444.5v-377c0-33.137,26.863-60,60-60H146c-44.183,0-80,35.817-80,80v337&#10;&#9;&#9;c0,44.183,35.817,80,80,80h140C252.863,504.5,226,477.637,226,444.5z"
    />
    <path
      style="fill: #96e8ff"
      d="M366,67.5H146c-11.046,0-20,8.954-20,20v327c0,11.046,8.954,20,20,20h220c11.046,0,20-8.954,20-20&#10;&#9;&#9;v-327C386,76.454,377.046,67.5,366,67.5z"
    />
    <path
      style="fill: #80dbff"
      d="M126,87.5v327c0,11.046,8.954,20,20,20h80v-367h-80C134.954,67.5,126,76.454,126,87.5z"
    />
    <path
      style="fill: #ffffff"
      d="M256,115.517c-26.85-7.998-53.509-8.858-80.318-2.577c-5.664,1.327-9.682,6.363-9.682,12.18&#10;&#9;&#9;c0,39.161,0,53.805,0,92.965c0,6.374,5.886,11.128,12.113,9.768c23.172-5.058,46.241-4.777,69.425,0.841&#10;&#9;&#9;c5.563,1.348,11.361,1.348,16.924,0c23.184-5.618,46.252-5.898,69.425-0.841c6.227,1.359,12.113-3.395,12.113-9.768&#10;&#9;&#9;c0-39.161,0-53.805,0-92.965c0-5.818-4.018-10.853-9.682-12.18C309.509,106.659,282.85,107.518,256,115.517z"
    />
    <path
      style="fill: #f5fafc"
      d="M175.682,112.94c-5.664,1.327-9.682,6.363-9.682,12.18c0,39.161,0,53.805,0,92.965&#10;&#9;&#9;c0,6.374,5.886,11.128,12.113,9.769c23.172-5.058,46.241-4.777,69.425,0.841c2.782,0.674,5.622,1.011,8.462,1.011V115.517&#10;&#9;&#9;C229.15,107.518,202.491,106.659,175.682,112.94z"
    />
    <path
      style="fill: #e1f1fa"
      d="M206.53,108.873c-10.274,0.306-20.551,1.654-30.85,4.067c-5.663,1.327-9.681,6.368-9.681,12.184&#10;&#9;&#9;c0,39.155,0,53.801,0,92.955c0,6.355,5.86,11.141,12.068,9.785c23.188-5.068,46.271-4.791,69.47,0.831&#10;&#9;&#9;c2.782,0.674,8.462,1.011,8.462,1.011c0-12.844-13.338-21.214-26.163-26.293c-14.114-5.59-23.307-19.322-23.307-34.502V108.873z"
    />
    <g>
      <path
        style="
          fill: none;
          stroke: #000000;
          stroke-width: 15;
          stroke-linecap: round;
          stroke-linejoin: round;
          stroke-miterlimit: 10;
        "
        d="&#10;&#9;&#9;&#9;M366,504.5H146c-44.183,0-80-35.817-80-80v-337c0-44.183,35.817-80,80-80h220c44.183,0,80,35.817,80,80v337&#10;&#9;&#9;&#9;C446,468.683,410.183,504.5,366,504.5z"
      />
      <path
        style="
          fill: none;
          stroke: #000000;
          stroke-width: 15;
          stroke-linecap: round;
          stroke-linejoin: round;
          stroke-miterlimit: 10;
        "
        d="&#10;&#9;&#9;&#9;M126,398.01v16.49c0,11.046,8.954,20,20,20h220c11.046,0,20-8.954,20-20v-327c0-11.046-8.954-20-20-20H146&#10;&#9;&#9;&#9;c-11.046,0-20,8.954-20,20v280.51"
      />

      <line
        style="
          fill: none;
          stroke: #000000;
          stroke-width: 15;
          stroke-linecap: round;
          stroke-linejoin: round;
          stroke-miterlimit: 10;
        "
        x1="176"
        y1="281.01"
        x2="336"
        y2="281.01"
      />

      <line
        style="
          fill: none;
          stroke: #000000;
          stroke-width: 15;
          stroke-linecap: round;
          stroke-linejoin: round;
          stroke-miterlimit: 10;
        "
        x1="176"
        y1="321.01"
        x2="336"
        y2="321.01"
      />
      <path
        style="
          fill: none;
          stroke: #000000;
          stroke-width: 15;
          stroke-linecap: round;
          stroke-linejoin: round;
          stroke-miterlimit: 10;
        "
        d="&#10;&#9;&#9;&#9;M286.144,109.53c-10.033,0.992-20.075,2.987-30.144,5.986c-26.85-7.998-53.509-8.858-80.318-2.577&#10;&#9;&#9;&#9;c-5.664,1.327-9.682,6.363-9.682,12.18c0,39.161,0,53.805,0,92.965c0,6.374,5.886,11.128,12.113,9.768&#10;&#9;&#9;&#9;c23.172-5.058,46.241-4.777,69.425,0.841c5.563,1.348,11.361,1.348,16.924,0c23.184-5.618,46.252-5.898,69.425-0.841&#10;&#9;&#9;&#9;c6.227,1.359,12.113-3.395,12.113-9.768c0-39.161,0-53.805,0-92.965c0-5.818-4.018-10.853-9.682-12.18&#10;&#9;&#9;&#9;c-6.702-1.57-13.395-2.694-20.084-3.372"
      />

      <line
        style="
          fill: none;
          stroke: #000000;
          stroke-width: 15;
          stroke-linecap: round;
          stroke-linejoin: round;
          stroke-miterlimit: 10;
        "
        x1="256"
        y1="115.517"
        x2="256"
        y2="229.706"
      />
      <g>
        <line
          style="
            fill: none;
            stroke: #000000;
            stroke-width: 15;
            stroke-linecap: round;
            stroke-linejoin: round;
            stroke-miterlimit: 10;
          "
          x1="193.551"
          y1="362.07"
          x2="193.551"
          y2="374.07"
        />

        <line
          style="
            fill: none;
            stroke: #000000;
            stroke-width: 15;
            stroke-linecap: round;
            stroke-linejoin: round;
            stroke-miterlimit: 10;
          "
          x1="318.449"
          y1="362.07"
          x2="318.449"
          y2="374.07"
        />
        <path
          style="
            fill: none;
            stroke: #000000;
            stroke-width: 15;
            stroke-linecap: round;
            stroke-linejoin: round;
            stroke-miterlimit: 10;
          "
          d="&#10;&#9;&#9;&#9;&#9;M239.536,373.713c4.003,4.594,9.892,7.501,16.464,7.501c6.572,0,12.461-2.907,16.464-7.501"
        />
      </g>
    </g>
  </g>
  <g></g>
  <g></g>
  <g></g>
  <g></g>
  <g></g>
  <g></g>
  <g></g>
  <g></g>
  <g></g>
  <g></g>
  <g></g>
  <g></g>
  <g></g>
  <g></g>
  <g></g>
</svg>
