<svg
  id="Capa_1"
  enable-background="new 0 0 512 512"
  height="512"
  viewBox="0 0 512 512"
  width="512"
  xmlns="http://www.w3.org/2000/svg"
>
  <g>
    <path
      d="m449.945 61.818v388.363c0 34.144-27.684 61.818-61.818 61.818h-264.254c-34.134 0-61.818-27.674-61.818-61.818v-388.363c0-34.144 27.684-61.818 61.818-61.818h264.253c34.135 0 61.819 27.674 61.819 61.818z"
      fill="#808fa4"
    />
    <path
      d="m188.464 512h-64.59c-34.134 0-61.818-27.674-61.818-61.818v-388.364c-.001-34.144 27.683-61.818 61.817-61.818h50.341c-7.367 6.574-15.218 18.092-15.218 37.359v423.909c.001 0-.215 30.24 29.468 50.732z"
      fill="#64768e"
    />
    <path
      d="m418.912 61.942v147.509l-194.274 13.033 77.912-191.451h85.453c17.072 0 30.909 13.837 30.909 30.909z"
      fill="#c5ced6"
    />
    <path
      d="m271.516 31.033-46.878 191.451-65.641-6.501-65.909-6.532 20.843-140.421 45.365-37.997z"
      fill="#abb6c4"
    />
    <path
      d="m159.296 31.033c-.196 2.009-.299 4.121-.299 6.326v178.624l-65.909-6.532v-147.509c0-17.072 13.837-30.909 30.909-30.909z"
      fill="#9ca9ba"
    />
    <path
      d="m313.676 222.484-18.885 196.428h-135.794l-51.732-35.968-14.177-142.46 65.909-5.379z"
      fill="#c5ced6"
    />
    <path
      d="m93.088 240.484 65.909-5.378v183.807h-35c-17.072 0-30.909-13.837-30.909-30.909z"
      fill="#abb6c4"
    />
    <path
      d="m418.912 240.484v147.519c0 17.072-13.837 30.909-30.909 30.909h-62.19l-12.137-196.428z"
      fill="#64768e"
    />
    <path
      d="m287.487 480.971h-62.974c-8.317 0-15.059-6.742-15.059-15.059v-.913c0-8.317 6.742-15.059 15.059-15.059h62.974c8.317 0 15.059 6.742 15.059 15.059v.913c0 8.316-6.743 15.059-15.059 15.059z"
      fill="#64768e"
    />
    <path
      d="m418.912 209.451v31.033h-77.644c-8.531 0-15.455 6.924-15.455 15.455v162.974h-31.022v-162.975c0-8.531-6.923-15.455-15.455-15.455h-120.34l-13.147-13.27 13.147-17.763h44.138c6.718 0 12.673-4.348 14.723-10.746l53.658-167.672h31.033l-50.65 158.255c-3.183 9.974 4.255 20.163 14.723 20.163h152.291z"
      fill="#e8ecf9"
    />
    <path
      d="m93.088 209.451h65.909v31.033h-65.909z"
      fill="#d7ddf5"
    />
    <g>
      <g>
        <path
          d="m129.509 332.474c-4.268 0-7.727-3.459-7.727-7.727v-12.364c0-4.268 3.459-7.727 7.727-7.727s7.727 3.459 7.727 7.727v12.364c0 4.268-3.459 7.727-7.727 7.727z"
          fill="#495560"
        />
      </g>
      <g>
        <path
          d="m258.191 332.474c-4.268 0-7.727-3.459-7.727-7.727v-12.364c0-4.268 3.459-7.727 7.727-7.727s7.727 3.459 7.727 7.727v12.364c.001 4.268-3.458 7.727-7.727 7.727z"
          fill="#495560"
        />
      </g>
      <path
        d="m223.825 324.391c-4.268 0-7.727 3.459-7.727 7.727 0 3.952-3.215 7.167-7.166 7.167-3.952 0-7.167-3.215-7.167-7.167 0-4.268-3.459-7.727-7.727-7.727s-7.727 3.459-7.727 7.727c0 3.952-3.215 7.167-7.166 7.167-3.952 0-7.167-3.215-7.167-7.167 0-4.268-3.459-7.727-7.727-7.727s-7.727 3.459-7.727 7.727c0 12.473 10.148 22.621 22.621 22.621 5.7 0 10.911-2.124 14.894-5.616 3.982 3.492 9.193 5.616 14.894 5.616 12.473 0 22.62-10.148 22.62-22.621-.001-4.268-3.46-7.727-7.728-7.727z"
        fill="#495560"
      />
    </g>
  </g>
</svg>
