<?xml version="1.0" encoding="UTF-8"?>
<svg
  xmlns="http://www.w3.org/2000/svg"
  version="1.1"
  id="Capa_1"
  x="0px"
  y="0px"
  viewBox="0 0 511.941 511.941"
  style="enable-background: new 0 0 511.941 511.941"
  xml:space="preserve"
  width="512"
  height="512"
>
  <g>
    <g>
      <path
        style="fill: #808fa4"
        d="M444.211,67.5v376.94c0,33.14-26.87,60-60,60H127.73c-33.13,0-60-26.86-60-60V67.5&#10;&#9;&#9;&#9;c0-33.14,26.87-60,60-60h256.48C417.341,7.5,444.211,34.361,444.211,67.5z"
      />
      <path
        style="fill: #64768e"
        d="M190.421,504.44h-62.69c-33.13,0-60-26.86-60-60V67.5c0-33.14,26.87-60,60-60h48.86&#10;&#9;&#9;&#9;c-7.15,6.38-14.77,17.56-14.77,36.26v411.44C161.821,455.201,161.611,484.551,190.421,504.44z"
      />
      <path
        style="fill: #c5ced6"
        d="M414.091,67.62v143.17l-188.56,12.65l75.62-185.82h82.94&#10;&#9;&#9;&#9;C400.661,37.62,414.091,51.051,414.091,67.62z"
      />
      <polygon
        style="fill: #abb6c4"
        points="271.031,37.62 225.531,223.44 161.821,217.131 97.85,210.79 118.08,74.5 162.111,37.62 &#9;&#9;&#10;&#9;&#9;&#9;"
      />
      <path
        style="fill: #9ca9ba"
        d="M162.111,37.62c-0.19,1.95-0.29,4-0.29,6.14v173.37l-63.97-6.34V67.62c0-16.57,13.43-30,30-30&#10;&#9;&#9;&#9;H162.111z"
      />
      <polygon
        style="fill: #c5ced6"
        points="311.951,223.44 293.62,414.091 161.821,414.091 111.611,379.181 97.85,240.911 &#10;&#9;&#9;&#9;161.821,235.69 &#9;&#9;"
      />
      <path
        style="fill: #abb6c4"
        d="M97.85,240.911l63.97-5.22v178.4h-33.97c-16.57,0-30-13.43-30-30V240.911z"
      />
      <path
        style="fill: #64768e"
        d="M414.091,240.911v143.18c0,16.57-13.43,30-30,30h-60.36l-11.78-190.65L414.091,240.911z"
      />
      <path
        style="fill: #64768e"
        d="M286.088,474.324h-60.235c-8.317,0-15.059-6.742-15.059-15.059v0&#10;&#9;&#9;&#9;c0-8.317,6.742-15.059,15.059-15.059h60.235c8.317,0,15.059,6.742,15.059,15.059v0&#10;&#9;&#9;&#9;C301.147,467.581,294.405,474.324,286.088,474.324z"
      />
      <path
        style="fill: #e8ecf9"
        d="M414.091,210.79v30.12h-75.36c-8.28,0-15,6.72-15,15v158.18h-30.11v-158.18c0-8.28-6.72-15-15-15&#10;&#9;&#9;&#9;h-116.8l-12.76-12.88l12.76-17.24h42.84c6.52,0,12.3-4.22,14.29-10.43l52.08-162.74h30.12l-49.16,153.6&#10;&#9;&#9;&#9;c-3.09,9.68,4.13,19.57,14.29,19.57H414.091z"
      />
      <rect
        x="97.85"
        y="210.79"
        style="fill: #d7ddf5"
        width="63.97"
        height="30.12"
      />
    </g>
    <g>
      <path
        style="
          fill: none;
          stroke: #000000;
          stroke-width: 15;
          stroke-linecap: round;
          stroke-linejoin: round;
          stroke-miterlimit: 10;
        "
        d="&#10;&#9;&#9;&#9;M384.206,504.441H127.735c-33.137,0-60-26.863-60-60V67.5c0-33.137,26.863-60,60-60h256.471c33.137,0,60,26.863,60,60v376.941&#10;&#9;&#9;&#9;C444.206,477.578,417.343,504.441,384.206,504.441z"
      />
      <path
        style="
          fill: none;
          stroke: #000000;
          stroke-width: 15;
          stroke-linecap: round;
          stroke-linejoin: round;
          stroke-miterlimit: 10;
        "
        d="&#10;&#9;&#9;&#9;M384.088,414.088H127.853c-16.569,0-30-13.431-30-30V67.618c0-16.569,13.431-30,30-30h256.235c16.569,0,30,13.431,30,30v316.471&#10;&#9;&#9;&#9;C414.088,400.657,400.657,414.088,384.088,414.088z"
      />
      <path
        style="
          fill: none;
          stroke: #000000;
          stroke-width: 15;
          stroke-linecap: round;
          stroke-linejoin: round;
          stroke-miterlimit: 10;
        "
        d="&#10;&#9;&#9;&#9;M286.088,474.324h-60.235c-8.317,0-15.059-6.742-15.059-15.059c0-8.317,6.742-15.059,15.059-15.059h60.235&#10;&#9;&#9;&#9;c8.317,0,15.059,6.742,15.059,15.059C301.147,467.581,294.405,474.324,286.088,474.324z"
      />
      <path
        style="
          fill: none;
          stroke: #000000;
          stroke-width: 15;
          stroke-linecap: round;
          stroke-linejoin: round;
          stroke-miterlimit: 10;
        "
        d="&#10;&#9;&#9;&#9;M100.85,210.79h103.811c6.523,0,12.298-4.215,14.286-10.428L270.56,39.09"
      />
      <path
        style="
          fill: none;
          stroke: #000000;
          stroke-width: 15;
          stroke-linecap: round;
          stroke-linejoin: round;
          stroke-miterlimit: 10;
        "
        d="&#10;&#9;&#9;&#9;M293.62,410.091v-154.18c0-8.284-6.716-15-15-15H100.85"
      />
      <path
        style="
          fill: none;
          stroke: #000000;
          stroke-width: 15;
          stroke-linecap: round;
          stroke-linejoin: round;
          stroke-miterlimit: 10;
        "
        d="&#10;&#9;&#9;&#9;M411.091,240.911h-72.36c-8.284,0-15,6.716-15,15v154.18"
      />
      <path
        style="
          fill: none;
          stroke: #000000;
          stroke-width: 15;
          stroke-linecap: round;
          stroke-linejoin: round;
          stroke-miterlimit: 10;
        "
        d="&#10;&#9;&#9;&#9;M300.616,39.291l-48.622,151.927c-3.098,9.679,4.124,19.572,14.286,19.572h144.81"
      />
      <g>
        <line
          style="
            fill: none;
            stroke: #000000;
            stroke-width: 15;
            stroke-linecap: round;
            stroke-linejoin: round;
            stroke-miterlimit: 10;
          "
          x1="133.2"
          y1="310.695"
          x2="133.2"
          y2="322.695"
        />

        <line
          style="
            fill: none;
            stroke: #000000;
            stroke-width: 15;
            stroke-linecap: round;
            stroke-linejoin: round;
            stroke-miterlimit: 10;
          "
          x1="258.098"
          y1="310.695"
          x2="258.098"
          y2="322.695"
        />
        <g>
          <path
            style="
              fill: none;
              stroke: #000000;
              stroke-width: 15;
              stroke-linecap: round;
              stroke-miterlimit: 10;
            "
            d="M195.831,329.85&#10;&#9;&#9;&#9;&#9;&#9;c0,7.984-6.472,14.456-14.456,14.456s-14.456-6.472-14.456-14.456"
          />
          <path
            style="
              fill: none;
              stroke: #000000;
              stroke-width: 15;
              stroke-linecap: round;
              stroke-miterlimit: 10;
            "
            d="M224.742,329.85&#10;&#9;&#9;&#9;&#9;&#9;c0,7.984-6.472,14.456-14.456,14.456s-14.456-6.472-14.456-14.456"
          />
        </g>
      </g>
    </g>
  </g>
</svg>
