<svg
  id="Capa_1"
  enable-background="new 0 0 512 512"
  height="512"
  viewBox="0 0 512 512"
  width="512"
  xmlns="http://www.w3.org/2000/svg"
>
  <g>
    <path
      d="m449.945 61.818v388.363c0 34.144-27.684 61.818-61.818 61.818h-264.253c-34.134 0-61.818-27.674-61.818-61.818v-388.363c-.001-34.144 27.684-61.818 61.818-61.818h264.253c34.133 0 61.818 27.674 61.818 61.818z"
      fill="#e8ecf9"
    />
    <path
      d="m207.555 512h-83.681c-34.134 0-61.818-27.674-61.818-61.818v-388.364c-.001-34.144 27.684-61.818 61.818-61.818h79.993c-11.292 3.421-26.809 12.446-26.809 36.256v436.87c0 26.479 19.854 35.783 30.497 38.874z"
      fill="#d7ddf5"
    />
    <path
      d="m403.396 62.004v139.751c0 8.541-6.924 15.455-15.455 15.455h-210.883l-51.556-21.729v-124.699l51.556-24.233h210.883c8.531 0 15.455 6.913 15.455 15.455z"
      fill="#c5ced6"
    />
    <path
      d="m177.058 46.549v170.66h-52.999c-8.531 0-15.455-6.913-15.455-15.455v-139.75c0-8.541 6.924-15.455 15.455-15.455z"
      fill="#abb6c4"
    />
    <path
      d="m217.209 279.213v8.036l-40.151 41.769-8.809 9.17-59.644 4.307 12.333-53.195 56.121-25.541h24.696c8.541-.001 15.454 6.923 15.454 15.454z"
      fill="#c5ced6"
    />
    <path
      d="m124.059 263.758h52.999v65.26l-8.809 9.17-59.644 4.307v-63.281c-.001-8.532 6.923-15.456 15.454-15.456z"
      fill="#abb6c4"
    />
    <path
      d="m217.209 334.365v60.407l-40.151 43.438-4.204 4.543-64.25-8.634 8.573-21.379-8.573-26.551 50.743-51.824z"
      fill="#c5ced6"
    />
    <path
      d="m177.058 334.365v103.845l-4.204 4.543-64.25-8.634v-47.93l50.743-51.824z"
      fill="#abb6c4"
    />
    <path
      d="m217.209 287.249v47.116c-2.823 1.731-5.121 4.368-6.388 7.696-2.359 6.182-8.253 9.984-14.496 9.984-1.844 0-3.719-.33-5.543-1.03-.546-.206-1.092-.381-1.638-.525-1.298-.34-2.596-.505-3.895-.505-2.916 0-5.749.824-8.191 2.339l-11.045-14.888 11.045-32.29c1.03.165 2.061.433 3.07.824.587.227 1.175.412 1.772.556 1.247.319 2.514.474 3.771.474 6.244 0 12.137-3.802 14.496-9.984.082-.206.165-.412.258-.608 2.493-5.821 8.191-9.376 14.239-9.376.845.001 1.69.073 2.545.217z"
      fill="#808fa4"
    />
    <path
      d="m177.058 305.146v47.178c-2.782 1.731-5.049 4.348-6.305 7.645-.196.505-.402.989-.649 1.453-2.669 5.316-8.108 8.521-13.847 8.521-.309 0-.618-.01-.927-.031-1.535-.093-3.091-.412-4.605-.999-1.824-.701-3.699-1.03-5.543-1.03-6.244 0-12.137 3.802-14.496 9.984s-8.242 9.984-14.496 9.984c-1.834 0-3.709-.33-5.533-1.03-.68-.258-1.36-.474-2.05-.628v-43.695c5.038-1.02 9.458-4.523 11.426-9.674 2.359-6.182 8.253-9.984 14.496-9.984 1.844 0 3.709.33 5.533 1.03 1.824.701 3.709 1.03 5.553 1.03 1.113 0 2.226-.124 3.297-.361 2.895-.629 5.574-2.081 7.686-4.193 1.494-1.494 2.699-3.318 3.503-5.419 2.359-6.182 8.242-9.984 14.496-9.984.813-.003 1.637.058 2.461.203z"
      fill="#64768e"
    />
    <path
      d="m217.209 394.772v55.224c0 8.541-6.913 15.455-15.455 15.455h-24.696l-15.516-24.284 15.516-28.426c1.885-1.618 3.4-3.719 4.348-6.202 2.359-6.172 8.253-9.973 14.496-9.973 1.844 0 3.719.33 5.543 1.03 1.824.701 3.689 1.03 5.533 1.03 1.175 0 2.349-.134 3.472-.402h.01c2.494-.578 4.822-1.762 6.749-3.452z"
      fill="#808fa4"
    />
    <path
      d="m166.91 416.522c3.74 0 7.346-1.36 10.148-3.781v52.71h-52.999c-8.531 0-15.455-6.913-15.455-15.455v-15.877c3.802-1.968 8.397-2.37 12.704-.721 1.824.701 3.699 1.03 5.543 1.03 6.244 0 12.137-3.802 14.496-9.984s8.242-9.984 14.496-9.984c1.834 0 3.709.33 5.533 1.03 1.824.702 3.7 1.032 5.534 1.032z"
      fill="#64768e"
    />
    <path
      d="m403.396 351.612v98.384c0 8.541-6.924 15.455-15.455 15.455h-69.051l-55.132-93.686v-92.552c0-8.531 6.924-15.455 15.455-15.455h62.91z"
      fill="#808fa4"
    />
    <path
      d="m380.121 333.572-61.231 131.879h-39.677c-8.531 0-15.455-6.913-15.455-15.455v-78.231l77.572-53.699z"
      fill="#abb6c4"
    />
    <path
      d="m403.396 279.213v72.4c-7.058 3.359-14.95 5.234-23.275 5.234-3.534 0-6.996-.34-10.344-.989-17.34-3.338-31.744-14.929-38.956-30.518-3.215-6.924-5.007-14.651-5.007-22.79 0-15.197 6.244-28.941 16.31-38.791h45.818c8.53-.001 15.454 6.923 15.454 15.454z"
      fill="#c5ced6"
    />
    <g>
      <g>
        <ellipse
          cx="172.744"
          cy="147.233"
          fill="#fff"
          rx="30.72"
          ry="24.464"
        />
        <ellipse
          cx="339.256"
          cy="147.233"
          fill="#fff"
          rx="30.72"
          ry="24.464"
        />
        <path
          d="m285.787 117.781c-4.268 0-7.727 3.46-7.727 7.727 0 3.952-3.215 7.166-7.166 7.166s-7.166-3.215-7.166-7.166c0-4.268-3.46-7.727-7.727-7.727-4.268 0-7.727 3.46-7.727 7.727 0 3.952-3.215 7.166-7.166 7.166-3.952 0-7.166-3.215-7.166-7.166 0-4.268-3.46-7.727-7.727-7.727-4.268 0-7.727 3.46-7.727 7.727 0 12.473 10.148 22.621 22.621 22.621 5.701 0 10.911-2.124 14.894-5.616 3.982 3.492 9.193 5.616 14.894 5.616 12.473 0 22.621-10.148 22.621-22.621-.003-4.267-3.463-7.727-7.731-7.727z"
          fill="#495560"
        />
      </g>
      <g>
        <path
          d="m206.795 121.062c-4.268 0-7.727-3.46-7.727-7.727 0-3.559-2.896-6.454-6.455-6.454s-6.455 2.895-6.455 6.454c0 4.268-3.46 7.727-7.727 7.727-4.268 0-7.727-3.46-7.727-7.727 0-12.081 9.829-21.909 21.91-21.909s21.91 9.828 21.91 21.909c-.001 4.267-3.461 7.727-7.729 7.727z"
          fill="#495560"
        />
      </g>
      <g>
        <path
          d="m333.569 121.062c-4.268 0-7.727-3.46-7.727-7.727 0-3.559-2.896-6.454-6.455-6.454s-6.455 2.895-6.455 6.454c0 4.268-3.46 7.727-7.727 7.727-4.268 0-7.727-3.46-7.727-7.727 0-12.081 9.829-21.909 21.91-21.909s21.91 9.828 21.91 21.909c-.001 4.267-3.461 7.727-7.729 7.727z"
          fill="#495560"
        />
      </g>
    </g>
  </g>
</svg>
