<?xml version="1.0" encoding="UTF-8"?>
<svg
  xmlns="http://www.w3.org/2000/svg"
  version="1.1"
  id="Capa_1"
  x="0px"
  y="0px"
  viewBox="0 0 511.94 511.94"
  style="enable-background: new 0 0 511.94 511.94"
  xml:space="preserve"
  width="512"
  height="512"
>
  <g>
    <g>
      <path
        style="fill: #e8ecf9"
        d="M444.21,67.5v376.94c0,33.14-26.87,60-60,60H127.73c-33.13,0-60-26.86-60-60V67.5&#10;&#9;&#9;&#9;c0-33.14,26.87-60,60-60h256.48C417.34,7.5,444.21,34.36,444.21,67.5z"
      />
      <path
        style="fill: #d7ddf5"
        d="M208.95,504.44h-81.22c-33.13,0-60-26.86-60-60V67.5c0-33.14,26.87-60,60-60h77.64&#10;&#9;&#9;&#9;c-10.96,3.32-26.02,12.08-26.02,35.19v424.02C179.35,492.41,198.62,501.44,208.95,504.44z"
      />
      <path
        style="fill: #c5ced6"
        d="M399.03,67.68v135.64c0,8.29-6.72,15-15,15H179.35l-50.04-21.09V76.2l50.04-23.52h204.68&#10;&#9;&#9;&#9;C392.31,52.68,399.03,59.39,399.03,67.68z"
      />
      <path
        style="fill: #abb6c4"
        d="M179.35,52.68v165.64h-51.44c-8.28,0-15-6.71-15-15V67.68c0-8.29,6.72-15,15-15H179.35z"
      />
      <path
        style="fill: #c5ced6"
        d="M218.32,278.5v7.8l-38.97,40.54l-8.55,8.9l-57.89,4.18l11.97-51.63l54.47-24.79h23.97&#10;&#9;&#9;&#9;C211.61,263.5,218.32,270.22,218.32,278.5z"
      />
      <path
        style="fill: #abb6c4"
        d="M127.91,263.5h51.44v63.34l-8.55,8.9l-57.89,4.18V278.5C112.91,270.22,119.63,263.5,127.91,263.5z"
      />
      <polygon
        style="fill: #c5ced6"
        points="218.32,332.03 218.32,390.66 179.35,432.82 175.27,437.23 112.91,428.85 121.23,408.1 &#10;&#9;&#9;&#9;112.91,382.33 162.16,332.03 &#9;&#9;"
      />
      <polygon
        style="fill: #abb6c4"
        points="179.35,332.03 179.35,432.82 175.27,437.23 112.91,428.85 112.91,382.33 162.16,332.03 &#9;&#9;&#10;&#9;&#9;&#9;"
      />
      <path
        style="fill: #808fa4"
        d="M218.32,286.3v45.73c-2.74,1.68-4.97,4.24-6.2,7.47c-2.29,6-8.01,9.69-14.07,9.69&#10;&#9;&#9;&#9;c-1.79,0-3.61-0.32-5.38-1c-0.53-0.2-1.06-0.37-1.59-0.51c-1.26-0.33-2.52-0.49-3.78-0.49c-2.83,0-5.58,0.8-7.95,2.27&#10;&#9;&#9;&#9;l-10.72-14.45l10.72-31.34c1,0.16,2,0.42,2.98,0.8c0.57,0.22,1.14,0.4,1.72,0.54c1.21,0.31,2.44,0.46,3.66,0.46&#10;&#9;&#9;&#9;c6.06,0,11.78-3.69,14.07-9.69c0.08-0.2,0.16-0.4,0.25-0.59c2.42-5.65,7.95-9.1,13.82-9.1&#10;&#9;&#9;&#9;C216.67,286.09,217.49,286.16,218.32,286.3z"
      />
      <path
        style="fill: #64768e"
        d="M179.35,303.67v45.79c-2.7,1.68-4.9,4.22-6.12,7.42c-0.19,0.49-0.39,0.96-0.63,1.41&#10;&#9;&#9;&#9;c-2.59,5.16-7.87,8.27-13.44,8.27c-0.3,0-0.6-0.01-0.9-0.03c-1.49-0.09-3-0.4-4.47-0.97c-1.77-0.68-3.59-1-5.38-1&#10;&#9;&#9;&#9;c-6.06,0-11.78,3.69-14.07,9.69s-8,9.69-14.07,9.69c-1.78,0-3.6-0.32-5.37-1c-0.66-0.25-1.32-0.46-1.99-0.61v-42.41&#10;&#9;&#9;&#9;c4.89-0.99,9.18-4.39,11.09-9.39c2.29-6,8.01-9.69,14.07-9.69c1.79,0,3.6,0.32,5.37,1c1.77,0.68,3.6,1,5.39,1&#10;&#9;&#9;&#9;c1.08,0,2.16-0.12,3.2-0.35c2.81-0.61,5.41-2.02,7.46-4.07c1.45-1.45,2.62-3.22,3.4-5.26c2.29-6,8-9.69,14.07-9.69&#10;&#9;&#9;&#9;C177.75,303.47,178.55,303.53,179.35,303.67z"
      />
      <path
        style="fill: #808fa4"
        d="M218.32,390.66v53.6c0,8.29-6.71,15-15,15h-23.97l-15.06-23.57l15.06-27.59&#10;&#9;&#9;&#9;c1.83-1.57,3.3-3.61,4.22-6.02c2.29-5.99,8.01-9.68,14.07-9.68c1.79,0,3.61,0.32,5.38,1c1.77,0.68,3.58,1,5.37,1&#10;&#9;&#9;&#9;c1.14,0,2.28-0.13,3.37-0.39h0.01C214.19,393.45,216.45,392.3,218.32,390.66z"
      />
      <path
        style="fill: #64768e"
        d="M169.5,411.77c3.63,0,7.13-1.32,9.85-3.67v51.16h-51.44c-8.28,0-15-6.71-15-15v-15.41&#10;&#9;&#9;&#9;c3.69-1.91,8.15-2.3,12.33-0.7c1.77,0.68,3.59,1,5.38,1c6.06,0,11.78-3.69,14.07-9.69c2.29-6,8-9.69,14.07-9.69&#10;&#9;&#9;&#9;c1.78,0,3.6,0.32,5.37,1C165.9,411.45,167.72,411.77,169.5,411.77z"
      />
      <path
        style="fill: #808fa4"
        d="M399.03,348.77v95.49c0,8.29-6.72,15-15,15h-67.02l-53.51-90.93V278.5c0-8.28,6.72-15,15-15h61.06&#10;&#9;&#9;&#9;L399.03,348.77z"
      />
      <path
        style="fill: #abb6c4"
        d="M376.44,331.26l-59.43,128H278.5c-8.28,0-15-6.71-15-15v-75.93l75.29-52.12L376.44,331.26z"
      />
      <path
        style="fill: #c5ced6"
        d="M399.03,278.5v70.27c-6.85,3.26-14.51,5.08-22.59,5.08c-3.43,0-6.79-0.33-10.04-0.96&#10;&#9;&#9;&#9;c-16.83-3.24-30.81-14.49-37.81-29.62c-3.12-6.72-4.86-14.22-4.86-22.12c0-14.75,6.06-28.09,15.83-37.65h44.47&#10;&#9;&#9;&#9;C392.31,263.5,399.03,270.22,399.03,278.5z"
      />
      <g>
        <g>
          <ellipse
            style="fill: #ffffff"
            cx="175.162"
            cy="150.402"
            rx="29.816"
            ry="23.744"
          />
          <ellipse
            style="fill: #ffffff"
            cx="336.778"
            cy="150.402"
            rx="29.816"
            ry="23.744"
          />
        </g>
      </g>
    </g>
    <g>
      <path
        style="
          fill: none;
          stroke: #000000;
          stroke-width: 15;
          stroke-linecap: round;
          stroke-linejoin: round;
          stroke-miterlimit: 10;
        "
        d="&#10;&#9;&#9;&#9;M67.73,402.54v41.9c0,33.14,26.87,60,60,60h256.48c33.13,0,60-26.86,60-60V67.5c0-33.14-26.87-60-60-60H127.73&#10;&#9;&#9;&#9;c-33.13,0-60,26.86-60,60v300.04"
      />
      <path
        style="
          fill: none;
          stroke: #000000;
          stroke-width: 15;
          stroke-linecap: round;
          stroke-linejoin: round;
          stroke-miterlimit: 10;
        "
        d="&#10;&#9;&#9;&#9;M359,52.68h25.03c8.28,0,15,6.71,15,15v135.64c0,8.29-6.72,15-15,15H127.91c-8.28,0-15-6.71-15-15V67.68c0-8.29,6.72-15,15-15H324&#10;&#9;&#9;&#9;"
      />
      <path
        style="
          fill: none;
          stroke: #000000;
          stroke-width: 15;
          stroke-linecap: round;
          stroke-linejoin: round;
          stroke-miterlimit: 10;
        "
        d="&#10;&#9;&#9;&#9;M203.323,459.264h-75.412c-8.284,0-15-6.716-15-15V278.499c0-8.284,6.716-15,15-15h75.412c8.284,0,15,6.716,15,15v165.765&#10;&#9;&#9;&#9;C218.323,452.548,211.607,459.264,203.323,459.264z"
      />
      <path
        style="
          fill: none;
          stroke: #000000;
          stroke-width: 15;
          stroke-linecap: round;
          stroke-linejoin: round;
          stroke-miterlimit: 10;
        "
        d="&#10;&#9;&#9;&#9;M399.03,278.5v165.76c0,8.29-6.72,15-15,15H278.5c-8.28,0-15-6.71-15-15V278.5c0-8.28,6.72-15,15-15h105.53&#10;&#9;&#9;&#9;C392.31,263.5,399.03,270.22,399.03,278.5z"
      />

      <line
        style="
          fill: none;
          stroke: #000000;
          stroke-width: 15;
          stroke-linecap: round;
          stroke-linejoin: round;
          stroke-miterlimit: 10;
        "
        x1="264.641"
        y1="367.54"
        x2="327.14"
        y2="324.275"
      />

      <line
        style="
          fill: none;
          stroke: #000000;
          stroke-width: 15;
          stroke-linecap: round;
          stroke-linejoin: round;
          stroke-miterlimit: 10;
        "
        x1="335.24"
        y1="420"
        x2="317.58"
        y2="458.04"
      />

      <line
        style="
          fill: none;
          stroke: #000000;
          stroke-width: 15;
          stroke-linecap: round;
          stroke-linejoin: round;
          stroke-miterlimit: 10;
        "
        x1="365.42"
        y1="354.99"
        x2="349.98"
        y2="388.25"
      />
      <path
        style="
          fill: none;
          stroke: #000000;
          stroke-width: 15;
          stroke-linecap: round;
          stroke-linejoin: round;
          stroke-miterlimit: 10;
        "
        d="&#10;&#9;&#9;&#9;M337.07,266.11c-14.481,16.226-16.955,38.907-8.48,57.16c12.198,26.365,43.179,37.557,69.06,26.13"
      />
      <path
        style="
          fill: none;
          stroke: #000000;
          stroke-width: 15;
          stroke-linecap: round;
          stroke-linejoin: round;
          stroke-miterlimit: 10;
        "
        d="&#10;&#9;&#9;&#9;M114.09,339.63c4.39-1.26,8.16-4.51,9.91-9.1c2.29-6,8.01-9.69,14.07-9.69c4.907,0,5.826,2,10.76,2&#10;&#9;&#9;&#9;c6.016,0,11.752-3.643,14.06-9.68c2.29-6,8-9.69,14.07-9.69c3.551,0,5.135,1.068,7.09,1.54c7.171,1.837,14.948-1.942,17.73-9.23&#10;&#9;&#9;&#9;c2.653-6.632,8.993-10.222,15.36-9.63"
      />
      <path
        style="
          fill: none;
          stroke: #000000;
          stroke-width: 15;
          stroke-linecap: round;
          stroke-linejoin: round;
          stroke-miterlimit: 10;
        "
        d="&#10;&#9;&#9;&#9;M114.09,382.66c0.973,0.288,2.952,1.28,6.18,1.28c6.07,0,11.78-3.69,14.07-9.69c2.29-6,8.01-9.69,14.07-9.69&#10;&#9;&#9;&#9;c4.605,0,5.534,1.709,9.85,1.97c6.213,0.414,12.476-3.218,14.97-9.65c2.891-7.576,11.422-11.716,19.44-8.69&#10;&#9;&#9;&#9;c7.75,2.977,16.481-0.911,19.45-8.69c1.05-2.75,2.82-5.02,5.02-6.66"
      />
      <path
        style="
          fill: none;
          stroke: #000000;
          stroke-width: 15;
          stroke-linecap: round;
          stroke-linejoin: round;
          stroke-miterlimit: 10;
        "
        d="&#10;&#9;&#9;&#9;M114.09,428.31c3.44-1.43,7.41-1.59,11.15-0.16c7.75,2.977,16.481-0.911,19.45-8.69c2.29-6,8-9.69,14.07-9.69&#10;&#9;&#9;&#9;c4.886,0,5.854,2,10.74,2c6.07,0,11.78-3.69,14.07-9.69c2.29-5.99,8.01-9.68,14.07-9.68c4.907,0,5.856,2,10.75,2&#10;&#9;&#9;&#9;c3.118,0,6.213-0.998,8.75-2.81"
      />
      <g>
        <g>
          <g>
            <path
              style="
                fill: none;
                stroke: #000000;
                stroke-width: 15;
                stroke-linecap: round;
                stroke-miterlimit: 10;
              "
              d="M255.97,129.317&#10;&#9;&#9;&#9;&#9;&#9;&#9;c0,7.984-6.472,14.456-14.456,14.456c-7.984,0-14.456-6.472-14.456-14.456"
            />
            <path
              style="
                fill: none;
                stroke: #000000;
                stroke-width: 15;
                stroke-linecap: round;
                stroke-miterlimit: 10;
              "
              d="M284.881,129.317&#10;&#9;&#9;&#9;&#9;&#9;&#9;c0,7.984-6.472,14.456-14.456,14.456c-7.984,0-14.456-6.472-14.456-14.456"
            />
          </g>
        </g>
        <path
          style="
            fill: none;
            stroke: #000000;
            stroke-width: 15;
            stroke-linecap: round;
            stroke-linejoin: round;
            stroke-miterlimit: 10;
          "
          d="&#10;&#9;&#9;&#9;&#9;M208.213,117.501c0-7.602-6.163-13.765-13.765-13.765c-7.602,0-13.765,6.163-13.765,13.765"
        />
        <path
          style="
            fill: none;
            stroke: #000000;
            stroke-width: 15;
            stroke-linecap: round;
            stroke-linejoin: round;
            stroke-miterlimit: 10;
          "
          d="&#10;&#9;&#9;&#9;&#9;M303.727,117.501c0-7.602,6.163-13.765,13.765-13.765c7.602,0,13.765,6.163,13.765,13.765"
        />
      </g>
    </g>
  </g>
</svg>
